%TF.GenerationSoftware,KiCad,Pcbnew,7.0.10*%
%TF.CreationDate,2024-03-04T12:58:39-05:00*%
%TF.ProjectId,cdrpcb,63647270-6362-42e6-9b69-6361645f7063,rev?*%
%TF.SameCoordinates,Original*%
%TF.FileFunction,Drillmap*%
%TF.FilePolarity,Positive*%
%FSLAX45Y45*%
G04 Gerber Fmt 4.5, Leading zero omitted, Abs format (unit mm)*
G04 Created by KiCad (PCBNEW 7.0.10) date 2024-03-04 12:58:39*
%MOMM*%
%LPD*%
G01*
G04 APERTURE LIST*
%ADD10C,0.100000*%
%ADD11C,0.200000*%
%ADD12C,0.450000*%
%ADD13C,0.500000*%
G04 APERTURE END LIST*
D10*
X5994400Y-5930900D02*
X17970500Y-5930900D01*
X17970500Y-14960600D01*
X5994400Y-14960600D01*
X5994400Y-5930900D01*
D11*
D12*
X13725200Y-9401600D02*
X14175200Y-9851600D01*
X14175200Y-9401600D02*
X13725200Y-9851600D01*
D13*
X10867200Y-9626600D02*
G75*
G03*
X10367200Y-9626600I-250000J0D01*
G01*
X10367200Y-9626600D02*
G75*
G03*
X10867200Y-9626600I250000J0D01*
G01*
D11*
X6250177Y-15277084D02*
X6250177Y-15077084D01*
X6250177Y-15077084D02*
X6297796Y-15077084D01*
X6297796Y-15077084D02*
X6326367Y-15086608D01*
X6326367Y-15086608D02*
X6345415Y-15105655D01*
X6345415Y-15105655D02*
X6354939Y-15124703D01*
X6354939Y-15124703D02*
X6364462Y-15162798D01*
X6364462Y-15162798D02*
X6364462Y-15191369D01*
X6364462Y-15191369D02*
X6354939Y-15229465D01*
X6354939Y-15229465D02*
X6345415Y-15248512D01*
X6345415Y-15248512D02*
X6326367Y-15267560D01*
X6326367Y-15267560D02*
X6297796Y-15277084D01*
X6297796Y-15277084D02*
X6250177Y-15277084D01*
X6450177Y-15277084D02*
X6450177Y-15143750D01*
X6450177Y-15181846D02*
X6459701Y-15162798D01*
X6459701Y-15162798D02*
X6469224Y-15153274D01*
X6469224Y-15153274D02*
X6488272Y-15143750D01*
X6488272Y-15143750D02*
X6507320Y-15143750D01*
X6573986Y-15277084D02*
X6573986Y-15143750D01*
X6573986Y-15077084D02*
X6564462Y-15086608D01*
X6564462Y-15086608D02*
X6573986Y-15096131D01*
X6573986Y-15096131D02*
X6583510Y-15086608D01*
X6583510Y-15086608D02*
X6573986Y-15077084D01*
X6573986Y-15077084D02*
X6573986Y-15096131D01*
X6697796Y-15277084D02*
X6678748Y-15267560D01*
X6678748Y-15267560D02*
X6669224Y-15248512D01*
X6669224Y-15248512D02*
X6669224Y-15077084D01*
X6802558Y-15277084D02*
X6783510Y-15267560D01*
X6783510Y-15267560D02*
X6773986Y-15248512D01*
X6773986Y-15248512D02*
X6773986Y-15077084D01*
X7031129Y-15277084D02*
X7031129Y-15077084D01*
X7031129Y-15077084D02*
X7097796Y-15219941D01*
X7097796Y-15219941D02*
X7164462Y-15077084D01*
X7164462Y-15077084D02*
X7164462Y-15277084D01*
X7345415Y-15277084D02*
X7345415Y-15172322D01*
X7345415Y-15172322D02*
X7335891Y-15153274D01*
X7335891Y-15153274D02*
X7316843Y-15143750D01*
X7316843Y-15143750D02*
X7278748Y-15143750D01*
X7278748Y-15143750D02*
X7259701Y-15153274D01*
X7345415Y-15267560D02*
X7326367Y-15277084D01*
X7326367Y-15277084D02*
X7278748Y-15277084D01*
X7278748Y-15277084D02*
X7259701Y-15267560D01*
X7259701Y-15267560D02*
X7250177Y-15248512D01*
X7250177Y-15248512D02*
X7250177Y-15229465D01*
X7250177Y-15229465D02*
X7259701Y-15210417D01*
X7259701Y-15210417D02*
X7278748Y-15200893D01*
X7278748Y-15200893D02*
X7326367Y-15200893D01*
X7326367Y-15200893D02*
X7345415Y-15191369D01*
X7440653Y-15143750D02*
X7440653Y-15343750D01*
X7440653Y-15153274D02*
X7459701Y-15143750D01*
X7459701Y-15143750D02*
X7497796Y-15143750D01*
X7497796Y-15143750D02*
X7516843Y-15153274D01*
X7516843Y-15153274D02*
X7526367Y-15162798D01*
X7526367Y-15162798D02*
X7535891Y-15181846D01*
X7535891Y-15181846D02*
X7535891Y-15238988D01*
X7535891Y-15238988D02*
X7526367Y-15258036D01*
X7526367Y-15258036D02*
X7516843Y-15267560D01*
X7516843Y-15267560D02*
X7497796Y-15277084D01*
X7497796Y-15277084D02*
X7459701Y-15277084D01*
X7459701Y-15277084D02*
X7440653Y-15267560D01*
X7621605Y-15258036D02*
X7631129Y-15267560D01*
X7631129Y-15267560D02*
X7621605Y-15277084D01*
X7621605Y-15277084D02*
X7612082Y-15267560D01*
X7612082Y-15267560D02*
X7621605Y-15258036D01*
X7621605Y-15258036D02*
X7621605Y-15277084D01*
X7621605Y-15153274D02*
X7631129Y-15162798D01*
X7631129Y-15162798D02*
X7621605Y-15172322D01*
X7621605Y-15172322D02*
X7612082Y-15162798D01*
X7612082Y-15162798D02*
X7621605Y-15153274D01*
X7621605Y-15153274D02*
X7621605Y-15172322D01*
X5789400Y-15505600D02*
X5989400Y-15705600D01*
X5989400Y-15505600D02*
X5789400Y-15705600D01*
X6335891Y-15563750D02*
X6335891Y-15697084D01*
X6288272Y-15487560D02*
X6240653Y-15630417D01*
X6240653Y-15630417D02*
X6364462Y-15630417D01*
X6440653Y-15678036D02*
X6450177Y-15687560D01*
X6450177Y-15687560D02*
X6440653Y-15697084D01*
X6440653Y-15697084D02*
X6431129Y-15687560D01*
X6431129Y-15687560D02*
X6440653Y-15678036D01*
X6440653Y-15678036D02*
X6440653Y-15697084D01*
X6631129Y-15497084D02*
X6535891Y-15497084D01*
X6535891Y-15497084D02*
X6526367Y-15592322D01*
X6526367Y-15592322D02*
X6535891Y-15582798D01*
X6535891Y-15582798D02*
X6554939Y-15573274D01*
X6554939Y-15573274D02*
X6602558Y-15573274D01*
X6602558Y-15573274D02*
X6621605Y-15582798D01*
X6621605Y-15582798D02*
X6631129Y-15592322D01*
X6631129Y-15592322D02*
X6640653Y-15611369D01*
X6640653Y-15611369D02*
X6640653Y-15658988D01*
X6640653Y-15658988D02*
X6631129Y-15678036D01*
X6631129Y-15678036D02*
X6621605Y-15687560D01*
X6621605Y-15687560D02*
X6602558Y-15697084D01*
X6602558Y-15697084D02*
X6554939Y-15697084D01*
X6554939Y-15697084D02*
X6535891Y-15687560D01*
X6535891Y-15687560D02*
X6526367Y-15678036D01*
X6764462Y-15497084D02*
X6783510Y-15497084D01*
X6783510Y-15497084D02*
X6802558Y-15506608D01*
X6802558Y-15506608D02*
X6812082Y-15516131D01*
X6812082Y-15516131D02*
X6821605Y-15535179D01*
X6821605Y-15535179D02*
X6831129Y-15573274D01*
X6831129Y-15573274D02*
X6831129Y-15620893D01*
X6831129Y-15620893D02*
X6821605Y-15658988D01*
X6821605Y-15658988D02*
X6812082Y-15678036D01*
X6812082Y-15678036D02*
X6802558Y-15687560D01*
X6802558Y-15687560D02*
X6783510Y-15697084D01*
X6783510Y-15697084D02*
X6764462Y-15697084D01*
X6764462Y-15697084D02*
X6745415Y-15687560D01*
X6745415Y-15687560D02*
X6735891Y-15678036D01*
X6735891Y-15678036D02*
X6726367Y-15658988D01*
X6726367Y-15658988D02*
X6716843Y-15620893D01*
X6716843Y-15620893D02*
X6716843Y-15573274D01*
X6716843Y-15573274D02*
X6726367Y-15535179D01*
X6726367Y-15535179D02*
X6735891Y-15516131D01*
X6735891Y-15516131D02*
X6745415Y-15506608D01*
X6745415Y-15506608D02*
X6764462Y-15497084D01*
X6954939Y-15497084D02*
X6973986Y-15497084D01*
X6973986Y-15497084D02*
X6993034Y-15506608D01*
X6993034Y-15506608D02*
X7002558Y-15516131D01*
X7002558Y-15516131D02*
X7012082Y-15535179D01*
X7012082Y-15535179D02*
X7021605Y-15573274D01*
X7021605Y-15573274D02*
X7021605Y-15620893D01*
X7021605Y-15620893D02*
X7012082Y-15658988D01*
X7012082Y-15658988D02*
X7002558Y-15678036D01*
X7002558Y-15678036D02*
X6993034Y-15687560D01*
X6993034Y-15687560D02*
X6973986Y-15697084D01*
X6973986Y-15697084D02*
X6954939Y-15697084D01*
X6954939Y-15697084D02*
X6935891Y-15687560D01*
X6935891Y-15687560D02*
X6926367Y-15678036D01*
X6926367Y-15678036D02*
X6916843Y-15658988D01*
X6916843Y-15658988D02*
X6907320Y-15620893D01*
X6907320Y-15620893D02*
X6907320Y-15573274D01*
X6907320Y-15573274D02*
X6916843Y-15535179D01*
X6916843Y-15535179D02*
X6926367Y-15516131D01*
X6926367Y-15516131D02*
X6935891Y-15506608D01*
X6935891Y-15506608D02*
X6954939Y-15497084D01*
X7107320Y-15697084D02*
X7107320Y-15563750D01*
X7107320Y-15582798D02*
X7116843Y-15573274D01*
X7116843Y-15573274D02*
X7135891Y-15563750D01*
X7135891Y-15563750D02*
X7164463Y-15563750D01*
X7164463Y-15563750D02*
X7183510Y-15573274D01*
X7183510Y-15573274D02*
X7193034Y-15592322D01*
X7193034Y-15592322D02*
X7193034Y-15697084D01*
X7193034Y-15592322D02*
X7202558Y-15573274D01*
X7202558Y-15573274D02*
X7221605Y-15563750D01*
X7221605Y-15563750D02*
X7250177Y-15563750D01*
X7250177Y-15563750D02*
X7269224Y-15573274D01*
X7269224Y-15573274D02*
X7278748Y-15592322D01*
X7278748Y-15592322D02*
X7278748Y-15697084D01*
X7373986Y-15697084D02*
X7373986Y-15563750D01*
X7373986Y-15582798D02*
X7383510Y-15573274D01*
X7383510Y-15573274D02*
X7402558Y-15563750D01*
X7402558Y-15563750D02*
X7431129Y-15563750D01*
X7431129Y-15563750D02*
X7450177Y-15573274D01*
X7450177Y-15573274D02*
X7459701Y-15592322D01*
X7459701Y-15592322D02*
X7459701Y-15697084D01*
X7459701Y-15592322D02*
X7469224Y-15573274D01*
X7469224Y-15573274D02*
X7488272Y-15563750D01*
X7488272Y-15563750D02*
X7516843Y-15563750D01*
X7516843Y-15563750D02*
X7535891Y-15573274D01*
X7535891Y-15573274D02*
X7545415Y-15592322D01*
X7545415Y-15592322D02*
X7545415Y-15697084D01*
X7935891Y-15487560D02*
X7764463Y-15744703D01*
X8193034Y-15497084D02*
X8212082Y-15497084D01*
X8212082Y-15497084D02*
X8231129Y-15506608D01*
X8231129Y-15506608D02*
X8240653Y-15516131D01*
X8240653Y-15516131D02*
X8250177Y-15535179D01*
X8250177Y-15535179D02*
X8259701Y-15573274D01*
X8259701Y-15573274D02*
X8259701Y-15620893D01*
X8259701Y-15620893D02*
X8250177Y-15658988D01*
X8250177Y-15658988D02*
X8240653Y-15678036D01*
X8240653Y-15678036D02*
X8231129Y-15687560D01*
X8231129Y-15687560D02*
X8212082Y-15697084D01*
X8212082Y-15697084D02*
X8193034Y-15697084D01*
X8193034Y-15697084D02*
X8173986Y-15687560D01*
X8173986Y-15687560D02*
X8164463Y-15678036D01*
X8164463Y-15678036D02*
X8154939Y-15658988D01*
X8154939Y-15658988D02*
X8145415Y-15620893D01*
X8145415Y-15620893D02*
X8145415Y-15573274D01*
X8145415Y-15573274D02*
X8154939Y-15535179D01*
X8154939Y-15535179D02*
X8164463Y-15516131D01*
X8164463Y-15516131D02*
X8173986Y-15506608D01*
X8173986Y-15506608D02*
X8193034Y-15497084D01*
X8345415Y-15678036D02*
X8354939Y-15687560D01*
X8354939Y-15687560D02*
X8345415Y-15697084D01*
X8345415Y-15697084D02*
X8335891Y-15687560D01*
X8335891Y-15687560D02*
X8345415Y-15678036D01*
X8345415Y-15678036D02*
X8345415Y-15697084D01*
X8545415Y-15697084D02*
X8431129Y-15697084D01*
X8488272Y-15697084D02*
X8488272Y-15497084D01*
X8488272Y-15497084D02*
X8469225Y-15525655D01*
X8469225Y-15525655D02*
X8450177Y-15544703D01*
X8450177Y-15544703D02*
X8431129Y-15554227D01*
X8612082Y-15497084D02*
X8745415Y-15497084D01*
X8745415Y-15497084D02*
X8659701Y-15697084D01*
X8802558Y-15497084D02*
X8935891Y-15497084D01*
X8935891Y-15497084D02*
X8850177Y-15697084D01*
X9002558Y-15516131D02*
X9012082Y-15506608D01*
X9012082Y-15506608D02*
X9031129Y-15497084D01*
X9031129Y-15497084D02*
X9078749Y-15497084D01*
X9078749Y-15497084D02*
X9097796Y-15506608D01*
X9097796Y-15506608D02*
X9107320Y-15516131D01*
X9107320Y-15516131D02*
X9116844Y-15535179D01*
X9116844Y-15535179D02*
X9116844Y-15554227D01*
X9116844Y-15554227D02*
X9107320Y-15582798D01*
X9107320Y-15582798D02*
X8993034Y-15697084D01*
X8993034Y-15697084D02*
X9116844Y-15697084D01*
X9193034Y-15497084D02*
X9193034Y-15535179D01*
X9269225Y-15497084D02*
X9269225Y-15535179D01*
X9564463Y-15773274D02*
X9554939Y-15763750D01*
X9554939Y-15763750D02*
X9535891Y-15735179D01*
X9535891Y-15735179D02*
X9526368Y-15716131D01*
X9526368Y-15716131D02*
X9516844Y-15687560D01*
X9516844Y-15687560D02*
X9507320Y-15639941D01*
X9507320Y-15639941D02*
X9507320Y-15601846D01*
X9507320Y-15601846D02*
X9516844Y-15554227D01*
X9516844Y-15554227D02*
X9526368Y-15525655D01*
X9526368Y-15525655D02*
X9535891Y-15506608D01*
X9535891Y-15506608D02*
X9554939Y-15478036D01*
X9554939Y-15478036D02*
X9564463Y-15468512D01*
X9745415Y-15697084D02*
X9631130Y-15697084D01*
X9688272Y-15697084D02*
X9688272Y-15497084D01*
X9688272Y-15497084D02*
X9669225Y-15525655D01*
X9669225Y-15525655D02*
X9650177Y-15544703D01*
X9650177Y-15544703D02*
X9631130Y-15554227D01*
X9983511Y-15697084D02*
X9983511Y-15497084D01*
X10069225Y-15697084D02*
X10069225Y-15592322D01*
X10069225Y-15592322D02*
X10059701Y-15573274D01*
X10059701Y-15573274D02*
X10040653Y-15563750D01*
X10040653Y-15563750D02*
X10012082Y-15563750D01*
X10012082Y-15563750D02*
X9993034Y-15573274D01*
X9993034Y-15573274D02*
X9983511Y-15582798D01*
X10193034Y-15697084D02*
X10173987Y-15687560D01*
X10173987Y-15687560D02*
X10164463Y-15678036D01*
X10164463Y-15678036D02*
X10154939Y-15658988D01*
X10154939Y-15658988D02*
X10154939Y-15601846D01*
X10154939Y-15601846D02*
X10164463Y-15582798D01*
X10164463Y-15582798D02*
X10173987Y-15573274D01*
X10173987Y-15573274D02*
X10193034Y-15563750D01*
X10193034Y-15563750D02*
X10221606Y-15563750D01*
X10221606Y-15563750D02*
X10240653Y-15573274D01*
X10240653Y-15573274D02*
X10250177Y-15582798D01*
X10250177Y-15582798D02*
X10259701Y-15601846D01*
X10259701Y-15601846D02*
X10259701Y-15658988D01*
X10259701Y-15658988D02*
X10250177Y-15678036D01*
X10250177Y-15678036D02*
X10240653Y-15687560D01*
X10240653Y-15687560D02*
X10221606Y-15697084D01*
X10221606Y-15697084D02*
X10193034Y-15697084D01*
X10373987Y-15697084D02*
X10354939Y-15687560D01*
X10354939Y-15687560D02*
X10345415Y-15668512D01*
X10345415Y-15668512D02*
X10345415Y-15497084D01*
X10526368Y-15687560D02*
X10507320Y-15697084D01*
X10507320Y-15697084D02*
X10469225Y-15697084D01*
X10469225Y-15697084D02*
X10450177Y-15687560D01*
X10450177Y-15687560D02*
X10440653Y-15668512D01*
X10440653Y-15668512D02*
X10440653Y-15592322D01*
X10440653Y-15592322D02*
X10450177Y-15573274D01*
X10450177Y-15573274D02*
X10469225Y-15563750D01*
X10469225Y-15563750D02*
X10507320Y-15563750D01*
X10507320Y-15563750D02*
X10526368Y-15573274D01*
X10526368Y-15573274D02*
X10535892Y-15592322D01*
X10535892Y-15592322D02*
X10535892Y-15611369D01*
X10535892Y-15611369D02*
X10440653Y-15630417D01*
X10602558Y-15773274D02*
X10612082Y-15763750D01*
X10612082Y-15763750D02*
X10631130Y-15735179D01*
X10631130Y-15735179D02*
X10640653Y-15716131D01*
X10640653Y-15716131D02*
X10650177Y-15687560D01*
X10650177Y-15687560D02*
X10659701Y-15639941D01*
X10659701Y-15639941D02*
X10659701Y-15601846D01*
X10659701Y-15601846D02*
X10650177Y-15554227D01*
X10650177Y-15554227D02*
X10640653Y-15525655D01*
X10640653Y-15525655D02*
X10631130Y-15506608D01*
X10631130Y-15506608D02*
X10612082Y-15478036D01*
X10612082Y-15478036D02*
X10602558Y-15468512D01*
X10964463Y-15773274D02*
X10954939Y-15763750D01*
X10954939Y-15763750D02*
X10935892Y-15735179D01*
X10935892Y-15735179D02*
X10926368Y-15716131D01*
X10926368Y-15716131D02*
X10916844Y-15687560D01*
X10916844Y-15687560D02*
X10907320Y-15639941D01*
X10907320Y-15639941D02*
X10907320Y-15601846D01*
X10907320Y-15601846D02*
X10916844Y-15554227D01*
X10916844Y-15554227D02*
X10926368Y-15525655D01*
X10926368Y-15525655D02*
X10935892Y-15506608D01*
X10935892Y-15506608D02*
X10954939Y-15478036D01*
X10954939Y-15478036D02*
X10964463Y-15468512D01*
X11040653Y-15563750D02*
X11040653Y-15697084D01*
X11040653Y-15582798D02*
X11050177Y-15573274D01*
X11050177Y-15573274D02*
X11069225Y-15563750D01*
X11069225Y-15563750D02*
X11097796Y-15563750D01*
X11097796Y-15563750D02*
X11116844Y-15573274D01*
X11116844Y-15573274D02*
X11126368Y-15592322D01*
X11126368Y-15592322D02*
X11126368Y-15697084D01*
X11250177Y-15697084D02*
X11231130Y-15687560D01*
X11231130Y-15687560D02*
X11221606Y-15678036D01*
X11221606Y-15678036D02*
X11212082Y-15658988D01*
X11212082Y-15658988D02*
X11212082Y-15601846D01*
X11212082Y-15601846D02*
X11221606Y-15582798D01*
X11221606Y-15582798D02*
X11231130Y-15573274D01*
X11231130Y-15573274D02*
X11250177Y-15563750D01*
X11250177Y-15563750D02*
X11278749Y-15563750D01*
X11278749Y-15563750D02*
X11297796Y-15573274D01*
X11297796Y-15573274D02*
X11307320Y-15582798D01*
X11307320Y-15582798D02*
X11316844Y-15601846D01*
X11316844Y-15601846D02*
X11316844Y-15658988D01*
X11316844Y-15658988D02*
X11307320Y-15678036D01*
X11307320Y-15678036D02*
X11297796Y-15687560D01*
X11297796Y-15687560D02*
X11278749Y-15697084D01*
X11278749Y-15697084D02*
X11250177Y-15697084D01*
X11373987Y-15563750D02*
X11450177Y-15563750D01*
X11402558Y-15497084D02*
X11402558Y-15668512D01*
X11402558Y-15668512D02*
X11412082Y-15687560D01*
X11412082Y-15687560D02*
X11431130Y-15697084D01*
X11431130Y-15697084D02*
X11450177Y-15697084D01*
X11669225Y-15563750D02*
X11669225Y-15763750D01*
X11669225Y-15573274D02*
X11688272Y-15563750D01*
X11688272Y-15563750D02*
X11726368Y-15563750D01*
X11726368Y-15563750D02*
X11745415Y-15573274D01*
X11745415Y-15573274D02*
X11754939Y-15582798D01*
X11754939Y-15582798D02*
X11764463Y-15601846D01*
X11764463Y-15601846D02*
X11764463Y-15658988D01*
X11764463Y-15658988D02*
X11754939Y-15678036D01*
X11754939Y-15678036D02*
X11745415Y-15687560D01*
X11745415Y-15687560D02*
X11726368Y-15697084D01*
X11726368Y-15697084D02*
X11688272Y-15697084D01*
X11688272Y-15697084D02*
X11669225Y-15687560D01*
X11878749Y-15697084D02*
X11859701Y-15687560D01*
X11859701Y-15687560D02*
X11850177Y-15668512D01*
X11850177Y-15668512D02*
X11850177Y-15497084D01*
X12040653Y-15697084D02*
X12040653Y-15592322D01*
X12040653Y-15592322D02*
X12031130Y-15573274D01*
X12031130Y-15573274D02*
X12012082Y-15563750D01*
X12012082Y-15563750D02*
X11973987Y-15563750D01*
X11973987Y-15563750D02*
X11954939Y-15573274D01*
X12040653Y-15687560D02*
X12021606Y-15697084D01*
X12021606Y-15697084D02*
X11973987Y-15697084D01*
X11973987Y-15697084D02*
X11954939Y-15687560D01*
X11954939Y-15687560D02*
X11945415Y-15668512D01*
X11945415Y-15668512D02*
X11945415Y-15649465D01*
X11945415Y-15649465D02*
X11954939Y-15630417D01*
X11954939Y-15630417D02*
X11973987Y-15620893D01*
X11973987Y-15620893D02*
X12021606Y-15620893D01*
X12021606Y-15620893D02*
X12040653Y-15611369D01*
X12107320Y-15563750D02*
X12183511Y-15563750D01*
X12135892Y-15497084D02*
X12135892Y-15668512D01*
X12135892Y-15668512D02*
X12145415Y-15687560D01*
X12145415Y-15687560D02*
X12164463Y-15697084D01*
X12164463Y-15697084D02*
X12183511Y-15697084D01*
X12326368Y-15687560D02*
X12307320Y-15697084D01*
X12307320Y-15697084D02*
X12269225Y-15697084D01*
X12269225Y-15697084D02*
X12250177Y-15687560D01*
X12250177Y-15687560D02*
X12240653Y-15668512D01*
X12240653Y-15668512D02*
X12240653Y-15592322D01*
X12240653Y-15592322D02*
X12250177Y-15573274D01*
X12250177Y-15573274D02*
X12269225Y-15563750D01*
X12269225Y-15563750D02*
X12307320Y-15563750D01*
X12307320Y-15563750D02*
X12326368Y-15573274D01*
X12326368Y-15573274D02*
X12335892Y-15592322D01*
X12335892Y-15592322D02*
X12335892Y-15611369D01*
X12335892Y-15611369D02*
X12240653Y-15630417D01*
X12507320Y-15697084D02*
X12507320Y-15497084D01*
X12507320Y-15687560D02*
X12488273Y-15697084D01*
X12488273Y-15697084D02*
X12450177Y-15697084D01*
X12450177Y-15697084D02*
X12431130Y-15687560D01*
X12431130Y-15687560D02*
X12421606Y-15678036D01*
X12421606Y-15678036D02*
X12412082Y-15658988D01*
X12412082Y-15658988D02*
X12412082Y-15601846D01*
X12412082Y-15601846D02*
X12421606Y-15582798D01*
X12421606Y-15582798D02*
X12431130Y-15573274D01*
X12431130Y-15573274D02*
X12450177Y-15563750D01*
X12450177Y-15563750D02*
X12488273Y-15563750D01*
X12488273Y-15563750D02*
X12507320Y-15573274D01*
X12583511Y-15773274D02*
X12593034Y-15763750D01*
X12593034Y-15763750D02*
X12612082Y-15735179D01*
X12612082Y-15735179D02*
X12621606Y-15716131D01*
X12621606Y-15716131D02*
X12631130Y-15687560D01*
X12631130Y-15687560D02*
X12640653Y-15639941D01*
X12640653Y-15639941D02*
X12640653Y-15601846D01*
X12640653Y-15601846D02*
X12631130Y-15554227D01*
X12631130Y-15554227D02*
X12621606Y-15525655D01*
X12621606Y-15525655D02*
X12612082Y-15506608D01*
X12612082Y-15506608D02*
X12593034Y-15478036D01*
X12593034Y-15478036D02*
X12583511Y-15468512D01*
X5989400Y-15925600D02*
G75*
G03*
X5789400Y-15925600I-100000J0D01*
G01*
X5789400Y-15925600D02*
G75*
G03*
X5989400Y-15925600I100000J0D01*
G01*
X6345415Y-15817084D02*
X6250177Y-15817084D01*
X6250177Y-15817084D02*
X6240653Y-15912322D01*
X6240653Y-15912322D02*
X6250177Y-15902798D01*
X6250177Y-15902798D02*
X6269224Y-15893274D01*
X6269224Y-15893274D02*
X6316843Y-15893274D01*
X6316843Y-15893274D02*
X6335891Y-15902798D01*
X6335891Y-15902798D02*
X6345415Y-15912322D01*
X6345415Y-15912322D02*
X6354939Y-15931369D01*
X6354939Y-15931369D02*
X6354939Y-15978988D01*
X6354939Y-15978988D02*
X6345415Y-15998036D01*
X6345415Y-15998036D02*
X6335891Y-16007560D01*
X6335891Y-16007560D02*
X6316843Y-16017084D01*
X6316843Y-16017084D02*
X6269224Y-16017084D01*
X6269224Y-16017084D02*
X6250177Y-16007560D01*
X6250177Y-16007560D02*
X6240653Y-15998036D01*
X6440653Y-15998036D02*
X6450177Y-16007560D01*
X6450177Y-16007560D02*
X6440653Y-16017084D01*
X6440653Y-16017084D02*
X6431129Y-16007560D01*
X6431129Y-16007560D02*
X6440653Y-15998036D01*
X6440653Y-15998036D02*
X6440653Y-16017084D01*
X6573986Y-15817084D02*
X6593034Y-15817084D01*
X6593034Y-15817084D02*
X6612082Y-15826608D01*
X6612082Y-15826608D02*
X6621605Y-15836131D01*
X6621605Y-15836131D02*
X6631129Y-15855179D01*
X6631129Y-15855179D02*
X6640653Y-15893274D01*
X6640653Y-15893274D02*
X6640653Y-15940893D01*
X6640653Y-15940893D02*
X6631129Y-15978988D01*
X6631129Y-15978988D02*
X6621605Y-15998036D01*
X6621605Y-15998036D02*
X6612082Y-16007560D01*
X6612082Y-16007560D02*
X6593034Y-16017084D01*
X6593034Y-16017084D02*
X6573986Y-16017084D01*
X6573986Y-16017084D02*
X6554939Y-16007560D01*
X6554939Y-16007560D02*
X6545415Y-15998036D01*
X6545415Y-15998036D02*
X6535891Y-15978988D01*
X6535891Y-15978988D02*
X6526367Y-15940893D01*
X6526367Y-15940893D02*
X6526367Y-15893274D01*
X6526367Y-15893274D02*
X6535891Y-15855179D01*
X6535891Y-15855179D02*
X6545415Y-15836131D01*
X6545415Y-15836131D02*
X6554939Y-15826608D01*
X6554939Y-15826608D02*
X6573986Y-15817084D01*
X6764462Y-15817084D02*
X6783510Y-15817084D01*
X6783510Y-15817084D02*
X6802558Y-15826608D01*
X6802558Y-15826608D02*
X6812082Y-15836131D01*
X6812082Y-15836131D02*
X6821605Y-15855179D01*
X6821605Y-15855179D02*
X6831129Y-15893274D01*
X6831129Y-15893274D02*
X6831129Y-15940893D01*
X6831129Y-15940893D02*
X6821605Y-15978988D01*
X6821605Y-15978988D02*
X6812082Y-15998036D01*
X6812082Y-15998036D02*
X6802558Y-16007560D01*
X6802558Y-16007560D02*
X6783510Y-16017084D01*
X6783510Y-16017084D02*
X6764462Y-16017084D01*
X6764462Y-16017084D02*
X6745415Y-16007560D01*
X6745415Y-16007560D02*
X6735891Y-15998036D01*
X6735891Y-15998036D02*
X6726367Y-15978988D01*
X6726367Y-15978988D02*
X6716843Y-15940893D01*
X6716843Y-15940893D02*
X6716843Y-15893274D01*
X6716843Y-15893274D02*
X6726367Y-15855179D01*
X6726367Y-15855179D02*
X6735891Y-15836131D01*
X6735891Y-15836131D02*
X6745415Y-15826608D01*
X6745415Y-15826608D02*
X6764462Y-15817084D01*
X6954939Y-15817084D02*
X6973986Y-15817084D01*
X6973986Y-15817084D02*
X6993034Y-15826608D01*
X6993034Y-15826608D02*
X7002558Y-15836131D01*
X7002558Y-15836131D02*
X7012082Y-15855179D01*
X7012082Y-15855179D02*
X7021605Y-15893274D01*
X7021605Y-15893274D02*
X7021605Y-15940893D01*
X7021605Y-15940893D02*
X7012082Y-15978988D01*
X7012082Y-15978988D02*
X7002558Y-15998036D01*
X7002558Y-15998036D02*
X6993034Y-16007560D01*
X6993034Y-16007560D02*
X6973986Y-16017084D01*
X6973986Y-16017084D02*
X6954939Y-16017084D01*
X6954939Y-16017084D02*
X6935891Y-16007560D01*
X6935891Y-16007560D02*
X6926367Y-15998036D01*
X6926367Y-15998036D02*
X6916843Y-15978988D01*
X6916843Y-15978988D02*
X6907320Y-15940893D01*
X6907320Y-15940893D02*
X6907320Y-15893274D01*
X6907320Y-15893274D02*
X6916843Y-15855179D01*
X6916843Y-15855179D02*
X6926367Y-15836131D01*
X6926367Y-15836131D02*
X6935891Y-15826608D01*
X6935891Y-15826608D02*
X6954939Y-15817084D01*
X7107320Y-16017084D02*
X7107320Y-15883750D01*
X7107320Y-15902798D02*
X7116843Y-15893274D01*
X7116843Y-15893274D02*
X7135891Y-15883750D01*
X7135891Y-15883750D02*
X7164463Y-15883750D01*
X7164463Y-15883750D02*
X7183510Y-15893274D01*
X7183510Y-15893274D02*
X7193034Y-15912322D01*
X7193034Y-15912322D02*
X7193034Y-16017084D01*
X7193034Y-15912322D02*
X7202558Y-15893274D01*
X7202558Y-15893274D02*
X7221605Y-15883750D01*
X7221605Y-15883750D02*
X7250177Y-15883750D01*
X7250177Y-15883750D02*
X7269224Y-15893274D01*
X7269224Y-15893274D02*
X7278748Y-15912322D01*
X7278748Y-15912322D02*
X7278748Y-16017084D01*
X7373986Y-16017084D02*
X7373986Y-15883750D01*
X7373986Y-15902798D02*
X7383510Y-15893274D01*
X7383510Y-15893274D02*
X7402558Y-15883750D01*
X7402558Y-15883750D02*
X7431129Y-15883750D01*
X7431129Y-15883750D02*
X7450177Y-15893274D01*
X7450177Y-15893274D02*
X7459701Y-15912322D01*
X7459701Y-15912322D02*
X7459701Y-16017084D01*
X7459701Y-15912322D02*
X7469224Y-15893274D01*
X7469224Y-15893274D02*
X7488272Y-15883750D01*
X7488272Y-15883750D02*
X7516843Y-15883750D01*
X7516843Y-15883750D02*
X7535891Y-15893274D01*
X7535891Y-15893274D02*
X7545415Y-15912322D01*
X7545415Y-15912322D02*
X7545415Y-16017084D01*
X7935891Y-15807560D02*
X7764463Y-16064703D01*
X8193034Y-15817084D02*
X8212082Y-15817084D01*
X8212082Y-15817084D02*
X8231129Y-15826608D01*
X8231129Y-15826608D02*
X8240653Y-15836131D01*
X8240653Y-15836131D02*
X8250177Y-15855179D01*
X8250177Y-15855179D02*
X8259701Y-15893274D01*
X8259701Y-15893274D02*
X8259701Y-15940893D01*
X8259701Y-15940893D02*
X8250177Y-15978988D01*
X8250177Y-15978988D02*
X8240653Y-15998036D01*
X8240653Y-15998036D02*
X8231129Y-16007560D01*
X8231129Y-16007560D02*
X8212082Y-16017084D01*
X8212082Y-16017084D02*
X8193034Y-16017084D01*
X8193034Y-16017084D02*
X8173986Y-16007560D01*
X8173986Y-16007560D02*
X8164463Y-15998036D01*
X8164463Y-15998036D02*
X8154939Y-15978988D01*
X8154939Y-15978988D02*
X8145415Y-15940893D01*
X8145415Y-15940893D02*
X8145415Y-15893274D01*
X8145415Y-15893274D02*
X8154939Y-15855179D01*
X8154939Y-15855179D02*
X8164463Y-15836131D01*
X8164463Y-15836131D02*
X8173986Y-15826608D01*
X8173986Y-15826608D02*
X8193034Y-15817084D01*
X8345415Y-15998036D02*
X8354939Y-16007560D01*
X8354939Y-16007560D02*
X8345415Y-16017084D01*
X8345415Y-16017084D02*
X8335891Y-16007560D01*
X8335891Y-16007560D02*
X8345415Y-15998036D01*
X8345415Y-15998036D02*
X8345415Y-16017084D01*
X8545415Y-16017084D02*
X8431129Y-16017084D01*
X8488272Y-16017084D02*
X8488272Y-15817084D01*
X8488272Y-15817084D02*
X8469225Y-15845655D01*
X8469225Y-15845655D02*
X8450177Y-15864703D01*
X8450177Y-15864703D02*
X8431129Y-15874227D01*
X8640653Y-16017084D02*
X8678748Y-16017084D01*
X8678748Y-16017084D02*
X8697796Y-16007560D01*
X8697796Y-16007560D02*
X8707320Y-15998036D01*
X8707320Y-15998036D02*
X8726368Y-15969465D01*
X8726368Y-15969465D02*
X8735891Y-15931369D01*
X8735891Y-15931369D02*
X8735891Y-15855179D01*
X8735891Y-15855179D02*
X8726368Y-15836131D01*
X8726368Y-15836131D02*
X8716844Y-15826608D01*
X8716844Y-15826608D02*
X8697796Y-15817084D01*
X8697796Y-15817084D02*
X8659701Y-15817084D01*
X8659701Y-15817084D02*
X8640653Y-15826608D01*
X8640653Y-15826608D02*
X8631129Y-15836131D01*
X8631129Y-15836131D02*
X8621606Y-15855179D01*
X8621606Y-15855179D02*
X8621606Y-15902798D01*
X8621606Y-15902798D02*
X8631129Y-15921846D01*
X8631129Y-15921846D02*
X8640653Y-15931369D01*
X8640653Y-15931369D02*
X8659701Y-15940893D01*
X8659701Y-15940893D02*
X8697796Y-15940893D01*
X8697796Y-15940893D02*
X8716844Y-15931369D01*
X8716844Y-15931369D02*
X8726368Y-15921846D01*
X8726368Y-15921846D02*
X8735891Y-15902798D01*
X8907320Y-15817084D02*
X8869225Y-15817084D01*
X8869225Y-15817084D02*
X8850177Y-15826608D01*
X8850177Y-15826608D02*
X8840653Y-15836131D01*
X8840653Y-15836131D02*
X8821606Y-15864703D01*
X8821606Y-15864703D02*
X8812082Y-15902798D01*
X8812082Y-15902798D02*
X8812082Y-15978988D01*
X8812082Y-15978988D02*
X8821606Y-15998036D01*
X8821606Y-15998036D02*
X8831129Y-16007560D01*
X8831129Y-16007560D02*
X8850177Y-16017084D01*
X8850177Y-16017084D02*
X8888272Y-16017084D01*
X8888272Y-16017084D02*
X8907320Y-16007560D01*
X8907320Y-16007560D02*
X8916844Y-15998036D01*
X8916844Y-15998036D02*
X8926368Y-15978988D01*
X8926368Y-15978988D02*
X8926368Y-15931369D01*
X8926368Y-15931369D02*
X8916844Y-15912322D01*
X8916844Y-15912322D02*
X8907320Y-15902798D01*
X8907320Y-15902798D02*
X8888272Y-15893274D01*
X8888272Y-15893274D02*
X8850177Y-15893274D01*
X8850177Y-15893274D02*
X8831129Y-15902798D01*
X8831129Y-15902798D02*
X8821606Y-15912322D01*
X8821606Y-15912322D02*
X8812082Y-15931369D01*
X9021606Y-16017084D02*
X9059701Y-16017084D01*
X9059701Y-16017084D02*
X9078749Y-16007560D01*
X9078749Y-16007560D02*
X9088272Y-15998036D01*
X9088272Y-15998036D02*
X9107320Y-15969465D01*
X9107320Y-15969465D02*
X9116844Y-15931369D01*
X9116844Y-15931369D02*
X9116844Y-15855179D01*
X9116844Y-15855179D02*
X9107320Y-15836131D01*
X9107320Y-15836131D02*
X9097796Y-15826608D01*
X9097796Y-15826608D02*
X9078749Y-15817084D01*
X9078749Y-15817084D02*
X9040653Y-15817084D01*
X9040653Y-15817084D02*
X9021606Y-15826608D01*
X9021606Y-15826608D02*
X9012082Y-15836131D01*
X9012082Y-15836131D02*
X9002558Y-15855179D01*
X9002558Y-15855179D02*
X9002558Y-15902798D01*
X9002558Y-15902798D02*
X9012082Y-15921846D01*
X9012082Y-15921846D02*
X9021606Y-15931369D01*
X9021606Y-15931369D02*
X9040653Y-15940893D01*
X9040653Y-15940893D02*
X9078749Y-15940893D01*
X9078749Y-15940893D02*
X9097796Y-15931369D01*
X9097796Y-15931369D02*
X9107320Y-15921846D01*
X9107320Y-15921846D02*
X9116844Y-15902798D01*
X9193034Y-15817084D02*
X9193034Y-15855179D01*
X9269225Y-15817084D02*
X9269225Y-15855179D01*
X9564463Y-16093274D02*
X9554939Y-16083750D01*
X9554939Y-16083750D02*
X9535891Y-16055179D01*
X9535891Y-16055179D02*
X9526368Y-16036131D01*
X9526368Y-16036131D02*
X9516844Y-16007560D01*
X9516844Y-16007560D02*
X9507320Y-15959941D01*
X9507320Y-15959941D02*
X9507320Y-15921846D01*
X9507320Y-15921846D02*
X9516844Y-15874227D01*
X9516844Y-15874227D02*
X9526368Y-15845655D01*
X9526368Y-15845655D02*
X9535891Y-15826608D01*
X9535891Y-15826608D02*
X9554939Y-15798036D01*
X9554939Y-15798036D02*
X9564463Y-15788512D01*
X9745415Y-16017084D02*
X9631130Y-16017084D01*
X9688272Y-16017084D02*
X9688272Y-15817084D01*
X9688272Y-15817084D02*
X9669225Y-15845655D01*
X9669225Y-15845655D02*
X9650177Y-15864703D01*
X9650177Y-15864703D02*
X9631130Y-15874227D01*
X9983511Y-16017084D02*
X9983511Y-15817084D01*
X10069225Y-16017084D02*
X10069225Y-15912322D01*
X10069225Y-15912322D02*
X10059701Y-15893274D01*
X10059701Y-15893274D02*
X10040653Y-15883750D01*
X10040653Y-15883750D02*
X10012082Y-15883750D01*
X10012082Y-15883750D02*
X9993034Y-15893274D01*
X9993034Y-15893274D02*
X9983511Y-15902798D01*
X10193034Y-16017084D02*
X10173987Y-16007560D01*
X10173987Y-16007560D02*
X10164463Y-15998036D01*
X10164463Y-15998036D02*
X10154939Y-15978988D01*
X10154939Y-15978988D02*
X10154939Y-15921846D01*
X10154939Y-15921846D02*
X10164463Y-15902798D01*
X10164463Y-15902798D02*
X10173987Y-15893274D01*
X10173987Y-15893274D02*
X10193034Y-15883750D01*
X10193034Y-15883750D02*
X10221606Y-15883750D01*
X10221606Y-15883750D02*
X10240653Y-15893274D01*
X10240653Y-15893274D02*
X10250177Y-15902798D01*
X10250177Y-15902798D02*
X10259701Y-15921846D01*
X10259701Y-15921846D02*
X10259701Y-15978988D01*
X10259701Y-15978988D02*
X10250177Y-15998036D01*
X10250177Y-15998036D02*
X10240653Y-16007560D01*
X10240653Y-16007560D02*
X10221606Y-16017084D01*
X10221606Y-16017084D02*
X10193034Y-16017084D01*
X10373987Y-16017084D02*
X10354939Y-16007560D01*
X10354939Y-16007560D02*
X10345415Y-15988512D01*
X10345415Y-15988512D02*
X10345415Y-15817084D01*
X10526368Y-16007560D02*
X10507320Y-16017084D01*
X10507320Y-16017084D02*
X10469225Y-16017084D01*
X10469225Y-16017084D02*
X10450177Y-16007560D01*
X10450177Y-16007560D02*
X10440653Y-15988512D01*
X10440653Y-15988512D02*
X10440653Y-15912322D01*
X10440653Y-15912322D02*
X10450177Y-15893274D01*
X10450177Y-15893274D02*
X10469225Y-15883750D01*
X10469225Y-15883750D02*
X10507320Y-15883750D01*
X10507320Y-15883750D02*
X10526368Y-15893274D01*
X10526368Y-15893274D02*
X10535892Y-15912322D01*
X10535892Y-15912322D02*
X10535892Y-15931369D01*
X10535892Y-15931369D02*
X10440653Y-15950417D01*
X10602558Y-16093274D02*
X10612082Y-16083750D01*
X10612082Y-16083750D02*
X10631130Y-16055179D01*
X10631130Y-16055179D02*
X10640653Y-16036131D01*
X10640653Y-16036131D02*
X10650177Y-16007560D01*
X10650177Y-16007560D02*
X10659701Y-15959941D01*
X10659701Y-15959941D02*
X10659701Y-15921846D01*
X10659701Y-15921846D02*
X10650177Y-15874227D01*
X10650177Y-15874227D02*
X10640653Y-15845655D01*
X10640653Y-15845655D02*
X10631130Y-15826608D01*
X10631130Y-15826608D02*
X10612082Y-15798036D01*
X10612082Y-15798036D02*
X10602558Y-15788512D01*
X10964463Y-16093274D02*
X10954939Y-16083750D01*
X10954939Y-16083750D02*
X10935892Y-16055179D01*
X10935892Y-16055179D02*
X10926368Y-16036131D01*
X10926368Y-16036131D02*
X10916844Y-16007560D01*
X10916844Y-16007560D02*
X10907320Y-15959941D01*
X10907320Y-15959941D02*
X10907320Y-15921846D01*
X10907320Y-15921846D02*
X10916844Y-15874227D01*
X10916844Y-15874227D02*
X10926368Y-15845655D01*
X10926368Y-15845655D02*
X10935892Y-15826608D01*
X10935892Y-15826608D02*
X10954939Y-15798036D01*
X10954939Y-15798036D02*
X10964463Y-15788512D01*
X11040653Y-15883750D02*
X11040653Y-16017084D01*
X11040653Y-15902798D02*
X11050177Y-15893274D01*
X11050177Y-15893274D02*
X11069225Y-15883750D01*
X11069225Y-15883750D02*
X11097796Y-15883750D01*
X11097796Y-15883750D02*
X11116844Y-15893274D01*
X11116844Y-15893274D02*
X11126368Y-15912322D01*
X11126368Y-15912322D02*
X11126368Y-16017084D01*
X11250177Y-16017084D02*
X11231130Y-16007560D01*
X11231130Y-16007560D02*
X11221606Y-15998036D01*
X11221606Y-15998036D02*
X11212082Y-15978988D01*
X11212082Y-15978988D02*
X11212082Y-15921846D01*
X11212082Y-15921846D02*
X11221606Y-15902798D01*
X11221606Y-15902798D02*
X11231130Y-15893274D01*
X11231130Y-15893274D02*
X11250177Y-15883750D01*
X11250177Y-15883750D02*
X11278749Y-15883750D01*
X11278749Y-15883750D02*
X11297796Y-15893274D01*
X11297796Y-15893274D02*
X11307320Y-15902798D01*
X11307320Y-15902798D02*
X11316844Y-15921846D01*
X11316844Y-15921846D02*
X11316844Y-15978988D01*
X11316844Y-15978988D02*
X11307320Y-15998036D01*
X11307320Y-15998036D02*
X11297796Y-16007560D01*
X11297796Y-16007560D02*
X11278749Y-16017084D01*
X11278749Y-16017084D02*
X11250177Y-16017084D01*
X11373987Y-15883750D02*
X11450177Y-15883750D01*
X11402558Y-15817084D02*
X11402558Y-15988512D01*
X11402558Y-15988512D02*
X11412082Y-16007560D01*
X11412082Y-16007560D02*
X11431130Y-16017084D01*
X11431130Y-16017084D02*
X11450177Y-16017084D01*
X11669225Y-15883750D02*
X11669225Y-16083750D01*
X11669225Y-15893274D02*
X11688272Y-15883750D01*
X11688272Y-15883750D02*
X11726368Y-15883750D01*
X11726368Y-15883750D02*
X11745415Y-15893274D01*
X11745415Y-15893274D02*
X11754939Y-15902798D01*
X11754939Y-15902798D02*
X11764463Y-15921846D01*
X11764463Y-15921846D02*
X11764463Y-15978988D01*
X11764463Y-15978988D02*
X11754939Y-15998036D01*
X11754939Y-15998036D02*
X11745415Y-16007560D01*
X11745415Y-16007560D02*
X11726368Y-16017084D01*
X11726368Y-16017084D02*
X11688272Y-16017084D01*
X11688272Y-16017084D02*
X11669225Y-16007560D01*
X11878749Y-16017084D02*
X11859701Y-16007560D01*
X11859701Y-16007560D02*
X11850177Y-15988512D01*
X11850177Y-15988512D02*
X11850177Y-15817084D01*
X12040653Y-16017084D02*
X12040653Y-15912322D01*
X12040653Y-15912322D02*
X12031130Y-15893274D01*
X12031130Y-15893274D02*
X12012082Y-15883750D01*
X12012082Y-15883750D02*
X11973987Y-15883750D01*
X11973987Y-15883750D02*
X11954939Y-15893274D01*
X12040653Y-16007560D02*
X12021606Y-16017084D01*
X12021606Y-16017084D02*
X11973987Y-16017084D01*
X11973987Y-16017084D02*
X11954939Y-16007560D01*
X11954939Y-16007560D02*
X11945415Y-15988512D01*
X11945415Y-15988512D02*
X11945415Y-15969465D01*
X11945415Y-15969465D02*
X11954939Y-15950417D01*
X11954939Y-15950417D02*
X11973987Y-15940893D01*
X11973987Y-15940893D02*
X12021606Y-15940893D01*
X12021606Y-15940893D02*
X12040653Y-15931369D01*
X12107320Y-15883750D02*
X12183511Y-15883750D01*
X12135892Y-15817084D02*
X12135892Y-15988512D01*
X12135892Y-15988512D02*
X12145415Y-16007560D01*
X12145415Y-16007560D02*
X12164463Y-16017084D01*
X12164463Y-16017084D02*
X12183511Y-16017084D01*
X12326368Y-16007560D02*
X12307320Y-16017084D01*
X12307320Y-16017084D02*
X12269225Y-16017084D01*
X12269225Y-16017084D02*
X12250177Y-16007560D01*
X12250177Y-16007560D02*
X12240653Y-15988512D01*
X12240653Y-15988512D02*
X12240653Y-15912322D01*
X12240653Y-15912322D02*
X12250177Y-15893274D01*
X12250177Y-15893274D02*
X12269225Y-15883750D01*
X12269225Y-15883750D02*
X12307320Y-15883750D01*
X12307320Y-15883750D02*
X12326368Y-15893274D01*
X12326368Y-15893274D02*
X12335892Y-15912322D01*
X12335892Y-15912322D02*
X12335892Y-15931369D01*
X12335892Y-15931369D02*
X12240653Y-15950417D01*
X12507320Y-16017084D02*
X12507320Y-15817084D01*
X12507320Y-16007560D02*
X12488273Y-16017084D01*
X12488273Y-16017084D02*
X12450177Y-16017084D01*
X12450177Y-16017084D02*
X12431130Y-16007560D01*
X12431130Y-16007560D02*
X12421606Y-15998036D01*
X12421606Y-15998036D02*
X12412082Y-15978988D01*
X12412082Y-15978988D02*
X12412082Y-15921846D01*
X12412082Y-15921846D02*
X12421606Y-15902798D01*
X12421606Y-15902798D02*
X12431130Y-15893274D01*
X12431130Y-15893274D02*
X12450177Y-15883750D01*
X12450177Y-15883750D02*
X12488273Y-15883750D01*
X12488273Y-15883750D02*
X12507320Y-15893274D01*
X12583511Y-16093274D02*
X12593034Y-16083750D01*
X12593034Y-16083750D02*
X12612082Y-16055179D01*
X12612082Y-16055179D02*
X12621606Y-16036131D01*
X12621606Y-16036131D02*
X12631130Y-16007560D01*
X12631130Y-16007560D02*
X12640653Y-15959941D01*
X12640653Y-15959941D02*
X12640653Y-15921846D01*
X12640653Y-15921846D02*
X12631130Y-15874227D01*
X12631130Y-15874227D02*
X12621606Y-15845655D01*
X12621606Y-15845655D02*
X12612082Y-15826608D01*
X12612082Y-15826608D02*
X12593034Y-15798036D01*
X12593034Y-15798036D02*
X12583511Y-15788512D01*
M02*
