M48
; DRILL file {KiCad 7.0.10} date Monday, March 04, 2024 at 12:58:28 PM
; FORMAT={-:-/ absolute / metric / decimal}
; #@! TF.CreationDate,2024-03-04T12:58:28-05:00
; #@! TF.GenerationSoftware,Kicad,Pcbnew,7.0.10
; #@! TF.FileFunction,Plated,1,2,PTH
FMAT,2
METRIC
; #@! TA.AperFunction,Plated,PTH,ViaDrill
T1C0.400
; #@! TA.AperFunction,Plated,PTH,ComponentDrill
T2C0.600
; #@! TA.AperFunction,Plated,PTH,ComponentDrill
T3C0.700
; #@! TA.AperFunction,Plated,PTH,ComponentDrill
T4C0.900
; #@! TA.AperFunction,Plated,PTH,ComponentDrill
T5C0.991
; #@! TA.AperFunction,Plated,PTH,ComponentDrill
T6C1.000
; #@! TA.AperFunction,Plated,PTH,ComponentDrill
T7C1.540
; #@! TA.AperFunction,Plated,PTH,ComponentDrill
T8C2.500
%
G90
G05
T1
X67.31Y-106.121
X76.797Y-99.801
X84.298Y-100.142
X93.099Y-110.885
X94.706Y-132.883
X94.706Y-140.495
X95.373Y-122.373
X97.278Y-120.435
X98.224Y-117.605
X101.568Y-116.197
X110.261Y-132.883
X112.963Y-129.754
X118.132Y-110.783
X118.923Y-108.392
X122.433Y-138.851
X141.817Y-136.322
X153.238Y-113.456
T2
X95.631Y-88.646
X97.131Y-88.646
X113.557Y-68.245
X115.057Y-68.245
X133.441Y-68.295
X134.941Y-68.295
X152.218Y-68.676
X153.718Y-68.676
X171.21Y-68.492
X172.71Y-68.492
T3
X62.267Y-103.031
X62.267Y-104.931
X70.4Y-102.777
X70.4Y-104.677
X79.031Y-102.396
X79.031Y-104.296
X85.954Y-72.644
X85.954Y-75.794
X87.854Y-72.644
X87.854Y-75.794
X90.175Y-96.774
X92.075Y-96.774
X95.742Y-96.774
X97.642Y-96.774
X106.286Y-76.473
X108.186Y-76.473
X112.763Y-76.473
X114.663Y-76.473
X126.583Y-76.296
X128.483Y-76.296
X133.298Y-76.423
X135.198Y-76.423
X146.194Y-76.042
X148.094Y-76.042
X151.676Y-76.042
X153.576Y-76.042
X164.971Y-76.225
X166.871Y-76.225
X170.813Y-75.477
X172.713Y-75.477
T4
X62.521Y-96.681
X65.061Y-96.681
X70.522Y-96.681
X73.062Y-96.681
X78.782Y-96.681
X81.322Y-96.681
T5
X141.224Y-139.192
X141.224Y-146.812
X143.764Y-139.192
X143.764Y-146.812
X146.304Y-139.192
X146.304Y-146.812
X148.844Y-139.192
X148.844Y-146.812
T6
X61.718Y-112.564
X61.718Y-130.344
X64.258Y-112.564
X64.258Y-130.344
X64.262Y-146.304
X66.798Y-112.564
X66.798Y-130.344
X66.802Y-146.304
X69.338Y-112.564
X69.338Y-130.344
X69.342Y-146.304
X71.878Y-112.564
X71.878Y-130.344
X74.418Y-112.564
X74.418Y-130.344
X75.643Y-145.039
X75.643Y-147.579
X76.958Y-112.564
X76.958Y-130.344
X78.183Y-145.039
X78.183Y-147.579
X79.498Y-112.564
X79.498Y-130.344
X80.723Y-145.039
X80.723Y-147.579
X82.038Y-112.564
X82.038Y-130.344
X83.263Y-145.039
X83.263Y-147.579
X84.578Y-112.564
X84.578Y-130.344
X87.118Y-112.564
X87.118Y-130.344
X89.554Y-145.186
X89.658Y-112.564
X89.658Y-130.344
X91.059Y-87.508
X91.059Y-90.048
X92.094Y-145.186
X92.198Y-112.564
X92.198Y-130.344
X94.634Y-145.186
X94.738Y-112.564
X94.738Y-130.344
X97.174Y-145.186
X97.278Y-112.564
X97.278Y-130.344
X99.818Y-112.564
X99.818Y-130.302
X102.358Y-112.564
X102.358Y-130.344
X104.898Y-112.564
X104.898Y-130.344
X107.438Y-112.564
X107.438Y-130.344
X107.715Y-67.61
X107.715Y-70.15
X108.61Y-145.186
X109.978Y-112.564
X109.978Y-130.344
X111.15Y-145.186
X113.69Y-145.186
X113.894Y-82.792
X113.894Y-85.332
X113.894Y-87.872
X116.23Y-145.186
X118.77Y-145.186
X121.31Y-145.186
X121.312Y-115.123
X121.312Y-117.663
X121.312Y-120.203
X121.312Y-122.743
X121.312Y-125.283
X121.312Y-127.823
X127.091Y-67.787
X127.091Y-70.327
X132.41Y-82.906
X132.41Y-85.446
X132.41Y-87.986
X138.584Y-117.663
X138.584Y-120.203
X138.584Y-122.743
X138.584Y-125.283
X147.374Y-68.041
X147.374Y-70.581
X150.927Y-82.906
X150.927Y-85.446
X150.927Y-87.986
X151.745Y-115.123
X151.745Y-117.663
X151.745Y-120.203
X151.745Y-122.743
X151.745Y-125.283
X151.745Y-127.823
X165.749Y-67.971
X165.749Y-70.51
X169.017Y-117.663
X169.017Y-120.203
X169.017Y-122.743
X169.017Y-125.283
T7
X62.462Y-84.528
X62.762Y-61.628
X65.862Y-84.528
X73.462Y-84.528
X76.962Y-61.628
X76.962Y-84.528
T8
X122.157Y-132.088
X122.221Y-110.363
X137.715Y-110.363
X137.87Y-132.08
X152.59Y-132.088
X152.654Y-110.363
X168.148Y-110.363
X168.303Y-132.08
M30
