G04 #@! TF.GenerationSoftware,KiCad,Pcbnew,7.0.10*
G04 #@! TF.CreationDate,2024-03-04T12:56:58-05:00*
G04 #@! TF.ProjectId,cdrpcb,63647270-6362-42e6-9b69-6361645f7063,rev?*
G04 #@! TF.SameCoordinates,Original*
G04 #@! TF.FileFunction,Soldermask,Bot*
G04 #@! TF.FilePolarity,Negative*
%FSLAX46Y46*%
G04 Gerber Fmt 4.6, Leading zero omitted, Abs format (unit mm)*
G04 Created by KiCad (PCBNEW 7.0.10) date 2024-03-04 12:56:58*
%MOMM*%
%LPD*%
G01*
G04 APERTURE LIST*
G04 Aperture macros list*
%AMRoundRect*
0 Rectangle with rounded corners*
0 $1 Rounding radius*
0 $2 $3 $4 $5 $6 $7 $8 $9 X,Y pos of 4 corners*
0 Add a 4 corners polygon primitive as box body*
4,1,4,$2,$3,$4,$5,$6,$7,$8,$9,$2,$3,0*
0 Add four circle primitives for the rounded corners*
1,1,$1+$1,$2,$3*
1,1,$1+$1,$4,$5*
1,1,$1+$1,$6,$7*
1,1,$1+$1,$8,$9*
0 Add four rect primitives between the rounded corners*
20,1,$1+$1,$2,$3,$4,$5,0*
20,1,$1+$1,$4,$5,$6,$7,0*
20,1,$1+$1,$6,$7,$8,$9,0*
20,1,$1+$1,$8,$9,$2,$3,0*%
G04 Aperture macros list end*
%ADD10R,1.800000X1.800000*%
%ADD11C,1.800000*%
%ADD12C,1.400000*%
%ADD13O,1.400000X1.400000*%
%ADD14R,1.700000X1.700000*%
%ADD15O,1.700000X1.700000*%
%ADD16R,1.498600X1.498600*%
%ADD17C,1.498600*%
%ADD18R,1.200000X1.200000*%
%ADD19C,1.200000*%
%ADD20C,2.032000*%
%ADD21C,4.101600*%
%ADD22R,2.800000X2.800000*%
%ADD23C,5.000000*%
%ADD24C,1.600000*%
%ADD25RoundRect,0.200000X0.600000X-0.600000X0.600000X0.600000X-0.600000X0.600000X-0.600000X-0.600000X0*%
%ADD26C,4.500000*%
G04 APERTURE END LIST*
D10*
X62521000Y-96681400D03*
D11*
X65061000Y-96681400D03*
D12*
X126583300Y-76295800D03*
D13*
X128483300Y-76295800D03*
D12*
X133298300Y-76422800D03*
D13*
X135198300Y-76422800D03*
D14*
X113893600Y-82791900D03*
D15*
X113893600Y-85331900D03*
X113893600Y-87871900D03*
D12*
X170812800Y-75477000D03*
D13*
X172712800Y-75477000D03*
D16*
X148844000Y-139192000D03*
D17*
X146304000Y-139192000D03*
X143764000Y-139192000D03*
X141224000Y-139192000D03*
X141224000Y-146812000D03*
X143764000Y-146812000D03*
X146304000Y-146812000D03*
X148844000Y-146812000D03*
D12*
X70400000Y-102777400D03*
D13*
X70400000Y-104677400D03*
D14*
X108610400Y-145186400D03*
D15*
X111150400Y-145186400D03*
X113690400Y-145186400D03*
X116230400Y-145186400D03*
X118770400Y-145186400D03*
X121310400Y-145186400D03*
D14*
X165748800Y-67970500D03*
D15*
X165748800Y-70510500D03*
D18*
X95631000Y-88646000D03*
D19*
X97131000Y-88646000D03*
D12*
X62267000Y-103031400D03*
D13*
X62267000Y-104931400D03*
D14*
X147373900Y-68040800D03*
D15*
X147373900Y-70580800D03*
D20*
X151745100Y-115122700D03*
X169017100Y-117662700D03*
X151745100Y-117662700D03*
X169017100Y-120202700D03*
X151745100Y-120202700D03*
X169017100Y-122742700D03*
X151745100Y-122742700D03*
X169017100Y-125282700D03*
X151745100Y-125282700D03*
X151745100Y-127822700D03*
D21*
X168148022Y-110363005D03*
X152654022Y-110363005D03*
X168302664Y-132079693D03*
X152589687Y-132088282D03*
D18*
X152218300Y-68675800D03*
D19*
X153718300Y-68675800D03*
D14*
X64262000Y-146304000D03*
D15*
X66802000Y-146304000D03*
X69342000Y-146304000D03*
D12*
X164970800Y-76225500D03*
D13*
X166870800Y-76225500D03*
D22*
X76962500Y-84528500D03*
X73462500Y-84528500D03*
X65862500Y-84528500D03*
X62462500Y-84528500D03*
X76962500Y-61628500D03*
X62762500Y-61628500D03*
D10*
X70522000Y-96681400D03*
D11*
X73062000Y-96681400D03*
D12*
X112762900Y-76472800D03*
D13*
X114662900Y-76472800D03*
D14*
X107714900Y-67609800D03*
D15*
X107714900Y-70149800D03*
D12*
X85953600Y-72643600D03*
D13*
X87853600Y-72643600D03*
D12*
X95742000Y-96774000D03*
D13*
X97642000Y-96774000D03*
D14*
X91059000Y-90048000D03*
D15*
X91059000Y-87508000D03*
D12*
X79031000Y-102396400D03*
D13*
X79031000Y-104296400D03*
D23*
X106172000Y-96266000D03*
D12*
X106285900Y-76472800D03*
D13*
X108185900Y-76472800D03*
D24*
X61718000Y-130343900D03*
X64258000Y-130343900D03*
D25*
X66798000Y-130343900D03*
D24*
X69338000Y-130343900D03*
X71878000Y-130343900D03*
X74418000Y-130343900D03*
X76958000Y-130343900D03*
D25*
X79498000Y-130343900D03*
D24*
X82038000Y-130343900D03*
X84578000Y-130343900D03*
X87118000Y-130343900D03*
X89658000Y-130343900D03*
D25*
X92198000Y-130343900D03*
D24*
X94738000Y-130343900D03*
X97278000Y-130343900D03*
X99818000Y-130302019D03*
X102358000Y-130343900D03*
D25*
X104898000Y-130343900D03*
D24*
X107438000Y-130343900D03*
X109978000Y-130343900D03*
X109978000Y-112563900D03*
X107438000Y-112563900D03*
D25*
X104898000Y-112563900D03*
D24*
X102358000Y-112563900D03*
X99818000Y-112563900D03*
X97278000Y-112563900D03*
X94738000Y-112563900D03*
D25*
X92198000Y-112563900D03*
D24*
X89658000Y-112563900D03*
X87118000Y-112563900D03*
X84578000Y-112563900D03*
X82038000Y-112563900D03*
D25*
X79498000Y-112563900D03*
D24*
X76958000Y-112563900D03*
X74418000Y-112563900D03*
X71878000Y-112563900D03*
X69338000Y-112563900D03*
D25*
X66798000Y-112563900D03*
D24*
X64258000Y-112563900D03*
X61718000Y-112563900D03*
D20*
X121312000Y-115122700D03*
X138584000Y-117662700D03*
X121312000Y-117662700D03*
X138584000Y-120202700D03*
X121312000Y-120202700D03*
X138584000Y-122742700D03*
X121312000Y-122742700D03*
X138584000Y-125282700D03*
X121312000Y-125282700D03*
X121312000Y-127822700D03*
D21*
X137714922Y-110363005D03*
X122220922Y-110363005D03*
X137869564Y-132079693D03*
X122156587Y-132088282D03*
D14*
X127091300Y-67786800D03*
D15*
X127091300Y-70326800D03*
D18*
X171209800Y-68492000D03*
D19*
X172709800Y-68492000D03*
D14*
X150926800Y-82905600D03*
D15*
X150926800Y-85445600D03*
X150926800Y-87985600D03*
D18*
X133441300Y-68294800D03*
D19*
X134941300Y-68294800D03*
D12*
X85953600Y-75793600D03*
D13*
X87853600Y-75793600D03*
D12*
X151675900Y-76041800D03*
D13*
X153575900Y-76041800D03*
D10*
X78782000Y-96681400D03*
D11*
X81322000Y-96681400D03*
D18*
X113556900Y-68244800D03*
D19*
X115056900Y-68244800D03*
D12*
X90175000Y-96774000D03*
D13*
X92075000Y-96774000D03*
D14*
X97174400Y-145186400D03*
D15*
X94634400Y-145186400D03*
X92094400Y-145186400D03*
X89554400Y-145186400D03*
D12*
X146193900Y-76041800D03*
D13*
X148093900Y-76041800D03*
D26*
X139502000Y-96266000D03*
D14*
X75643200Y-147579000D03*
D15*
X75643200Y-145039000D03*
X78183200Y-147579000D03*
X78183200Y-145039000D03*
X80723200Y-147579000D03*
X80723200Y-145039000D03*
X83263200Y-147579000D03*
X83263200Y-145039000D03*
D14*
X132410200Y-82905600D03*
D15*
X132410200Y-85445600D03*
X132410200Y-87985600D03*
M02*
